<?xml version="1.0" standalone="no"?><!DOCTYPE svg PUBLIC "-//W3C//DTD SVG 1.1//EN" "http://www.w3.org/Graphics/SVG/1.1/DTD/svg11.dtd"><svg t="1662959960127" class="icon" viewBox="0 0 1024 1024" version="1.1" xmlns="http://www.w3.org/2000/svg" p-id="3047" xmlns:xlink="http://www.w3.org/1999/xlink" width="64" height="64"><path d="M128 832.042667c0 17.002667 4.906667 20.309333 20.629333 14.016l15.36-6.144c75.733333-30.293333 193.578667-30.293333 269.354667 0l94.506667 37.802666h-31.701334l94.506667-37.802666c75.733333-30.293333 193.578667-30.293333 269.354667 0l15.36 6.144c15.658667 6.272 20.629333 2.901333 20.629333-14.016V255.957333c0-29.738667-24.746667-66.304-52.309333-77.333333l-15.36-6.144c-55.424-22.165333-150.549333-22.186667-205.973334 0l-94.506666 37.802667-15.850667 6.336-15.850667-6.336-94.506666-37.802667c-55.402667-22.165333-150.528-22.186667-205.952 0l-15.36 6.144C152.810667 189.610667 128 226.304 128 255.957333v576.085334zM164.48 139.008l15.36-6.144c65.621333-26.24 172.117333-26.218667 237.653333 0L512 170.666667l94.506667-37.802667c65.621333-26.24 172.117333-26.218667 237.653333 0l15.36 6.144c43.733333 17.493333 79.146667 69.717333 79.146667 116.949333v576.085334c0 47.104-35.477333 71.104-79.146667 53.632l-15.36-6.144c-65.621333-26.24-172.117333-26.218667-237.653333 0L512 917.333333l-94.506667-37.802666c-65.621333-26.24-172.117333-26.218667-237.653333 0l-15.36 6.144c-43.733333 17.493333-79.146667-6.4-79.146667-53.632V255.957333C85.333333 208.853333 120.810667 156.48 164.48 139.008zM490.666667 213.397333a21.333333 21.333333 0 1 1 42.666666 0v511.872a21.333333 21.333333 0 1 1-42.666666 0V213.397333z" fill="#3D3D3D" p-id="3048"></path></svg>