<?xml version="1.0" encoding="UTF-8"?>
<!DOCTYPE svg PUBLIC "-//W3C//DTD SVG 1.1//EN" "http://www.w3.org/Graphics/SVG/1.1/DTD/svg11.dtd">
<!-- Creator: CorelDRAW X7 -->
<svg xmlns="http://www.w3.org/2000/svg" xml:space="preserve" width="342mm" height="210mm" version="1.1" style="shape-rendering:geometricPrecision; text-rendering:geometricPrecision; image-rendering:optimizeQuality; fill-rule:evenodd; clip-rule:evenodd"
viewBox="0 0 34200 21000"
 xmlns:xlink="http://www.w3.org/1999/xlink">
 <defs>
  <style type="text/css">
   <![CDATA[
    .str1 {stroke:red;stroke-width:20}
    .str0 {stroke:#1E80FF;stroke-width:7.62}
    .fil0 {fill:#1E80FF}
    .fil1 {fill:#FF3F38}
   ]]>
  </style>
 </defs>
 <g id="图层_x0020_1">
  <metadata id="CorelCorpID_0Corel-Layer"/>
  <g id="_856082568">
   <polygon class="fil0 str0" points="19934,6173 25685,15403 23083,20423 19526,14713 19482,14642 17336,11198 "/>
   <polygon class="fil0" points="17429,-1014 16887,33 16887,33 "/>
   <polygon class="fil0" points="19509,65 23483,87 12752,20907 9153,14980 16870,65 "/>
   <polygon class="fil0" points="19705,14980 27422,65 30061,65 34089,32 23304,20907 "/>
   <polygon class="fil1 str1" points="6858,11613 3474,5812 89,12 6858,12 13627,12 13579,94 10689,2098 7658,4201 7601,4847 7238,8200 6871,11591 "/>
  </g>
 </g>
</svg>
