<svg data-noselect="" viewBox="137.76404571532998 147.9999999999965 400 300" width="400" height="300" ref="svg_canvas" preserveAspectRatio="none" version="1.1" xmlns="http://www.w3.org/2000/svg" style="background: rgb(152, 192, 226);" class="style-removed">
    <defs></defs>
    <g id="shape_AjwXCJgVSQ" class="" ref="shape_AjwXCJgVSQ" key="shape_AjwXCJgVSQ" transform="translate(220,248.0321714893) rotate(0,80,49.967828510696) scale(1,1)" filter="" cursor="move" display="inline" opacity="1">
            <g display="inline"><rect fill="rgba(0,0,0,0)" width="180" height="119.935657021393" x="-10" y="-10"></rect><svg version="1.1" id="图层_1" xmlns="http://www.w3.org/2000/svg" xmlns:xlink="http://www.w3.org/1999/xlink" x="0px" y="0px" width="160" height="99.935657021393" viewBox="10.189589500427246 43.904483795166016 179.6204071044922 112.19052124023438" enable-background="new 0 0 200 200" xml:space="preserve" preserveAspectRatio="none" class="style-removed" data-parent="shape_AjwXCJgVSQ">
<g>
	<path fill="rgb(113, 36, 221)" d="M106.321,89.494c0,0,21.712-23.689,49.111-19.623c20.564,3.052,29.926,14.137,34.378,20.14H176.37
		c0,0-9.943-9.084-23.78-10.899C140.013,77.462,129.843,78.121,106.321,89.494z" stroke-width="0"></path>
	<path fill="rgb(113, 36, 221)" d="M147.161,71.716c0,0-5.801-22.574-33.028-27.054S61.92,55.92,43.31,82.687l22.517-4.021
		c0,0,19.354-29.195,47.101-24.24c16.083,2.872,24.699,10.109,27.916,18.496L147.161,71.716z" stroke-width="0"></path>
	<path fill="rgb(36, 163, 221)" d="M62.38,83.893c0,0-46.698,7.782-51.696,38.255c-4.136,25.216,18.611,33.947,33.43,33.947
		c18.036,0,112.698,0,112.698,0l1.206-5.687c0,0-71.397,0.324-101.38,0c-15.968-0.172-28.147-4.996-28.147-22.574
		c0-14.992,12.867-26.502,29.065-32.034L62.38,83.893z" stroke-width="0"></path>
</g>
</svg></g>
        </g><g id="shape_W7YDZ35Q8m" class="brand_name" ref="shape_W7YDZ35Q8m" key="shape_W7YDZ35Q8m" transform="translate(202.52809143066003,111.2349152832) rotate(0,206.27399295228,203.822) scale(1,1)" filter="" cursor="move" display="inline" opacity="1">
            <g display="inline"><svg xmlns="http://www.w3.org/2000/svg" version="1.1" xmlns:xlink="http://www.w3.org/1999/xlink" width="427" height="407.644" viewBox="0 0 427 407.644" preserveAspectRatio="none" data-parent="shape_W7YDZ35Q8m"><rect fill="rgba(0,0,0,0)" width="195" height="58" x="58" y="174.822"></rect><g data-width="194.64800000000002" transform="translate(58, 0)"><path d="M21.52-6.90L33.35-6.90L33.35 0L19.84 0Q16.01 0 13.98-0.41L13.98-0.41Q6.84-1.80 3.83-8.35L3.83-8.35Q1.86-12.76 1.86-19.26L1.86-19.26Q1.86-27.03 4.87-31.90L4.87-31.90Q7.08-35.44 10.76-37.06Q14.44-38.69 20.24-38.69L20.24-38.69L33.35-38.69L33.35-31.78L21.17-31.78Q15.66-31.78 13.11-28.83L13.11-28.83Q10.96-26.39 10.96-20.01L10.96-20.01Q10.96-11.43 14.27-8.76L14.27-8.76Q16.59-6.90 21.52-6.90L21.52-6.90Z" transform="translate(0 223.822) skewX(-14)" fill="rgb(113, 36, 221)" stroke="rgb(113, 36, 221)" stroke-width="0.097" data-glyph-w="35.148" data-glyph-h="58" data-glyph-ascender="49.822" data-glyph-descender="-8.178"></path><path d="M9.80 0L0.17 0L16.18-38.69L25.64-38.69L41.64 0L32.02 0L28.25-8.93L13.57-8.93L9.80 0ZM26.45-15.83L20.94-29.35L15.43-15.83L26.45-15.83Z" transform="translate(35.148 223.822) skewX(-14)" fill="rgb(113, 36, 221)" stroke="rgb(113, 36, 221)" stroke-width="0.097" data-glyph-w="41.876000000000005" data-glyph-h="58" data-glyph-ascender="49.822" data-glyph-descender="-8.178"></path><path d="M27.61 0L11.83-28.36L11.83 0L3.94 0L3.94-38.69L14.50-38.69L29.87-9.86L29.87-38.69L37.70-38.69L37.70 0L27.61 0Z" transform="translate(77.024 223.822) skewX(-14)" fill="rgb(113, 36, 221)" stroke="rgb(113, 36, 221)" stroke-width="0.097" data-glyph-w="41.644000000000005" data-glyph-h="58" data-glyph-ascender="49.822" data-glyph-descender="-8.178"></path><path d="M25.35 0L3.94 0L3.94-38.69L25.81-38.69Q30.97-38.69 33.29-37.47L33.29-37.47Q36.02-36.13 37.41-33.00L37.41-33.00Q38.40-30.86 38.40-28.54L38.40-28.54Q38.40-25.52 36.80-22.91Q35.21-20.30 32.77-19.31L32.77-19.31Q38.40-16.76 38.40-10.21L38.40-10.21Q38.40-6.44 36.60-3.89L36.60-3.89Q35.03-1.68 32.60-0.84Q30.16 0 25.35 0L25.35 0ZM12.18-31.78L12.18-22.79L23.37-22.79Q25.17-22.79 25.96-22.97Q26.74-23.14 27.49-23.72L27.49-23.72Q29.29-25.11 29.29-27.55L29.29-27.55Q29.29-29.87 27.61-30.97L27.61-30.97Q26.39-31.78 23.55-31.78L23.55-31.78L12.18-31.78ZM12.18-15.89L12.18-6.90L23.37-6.90Q25.17-6.90 25.98-7.08Q26.80-7.25 27.49-7.83L27.49-7.83Q29.29-9.22 29.29-11.66L29.29-11.66Q29.29-13.98 27.61-15.08L27.61-15.08Q26.39-15.89 23.55-15.89L23.55-15.89L12.18-15.89Z" transform="translate(118.668 223.822) skewX(-14)" fill="rgb(113, 36, 221)" stroke="rgb(113, 36, 221)" stroke-width="0.097" data-glyph-w="40.484" data-glyph-h="58" data-glyph-ascender="49.822" data-glyph-descender="-8.178"></path><path d="M19.08-38.69L32.94-38.69L32.94-31.78L22.21-31.78Q18.04-31.78 16.12-31.20Q14.21-30.62 12.93-28.94L12.93-28.94Q12.06-27.78 11.75-26.62Q11.43-25.46 11.19-22.68L11.19-22.68L32.94-22.68L32.94-15.78L11.19-15.78Q11.66-10.79 14.15-8.85Q16.65-6.90 22.62-6.90L22.62-6.90L32.94-6.90L32.94 0L22.21 0Q17.86 0 14.56-0.52L14.56-0.52Q9.34-1.39 6.26-5.10L6.26-5.10Q1.86-10.44 1.86-19.55L1.86-19.55Q1.86-29.64 8.06-35.26L8.06-35.26Q10.21-37.18 12.62-37.93Q15.02-38.69 19.08-38.69L19.08-38.69Z" transform="translate(159.15200000000002 223.822) skewX(-14)" fill="rgb(113, 36, 221)" stroke="rgb(113, 36, 221)" stroke-width="0.097" data-glyph-w="35.496" data-glyph-h="58" data-glyph-ascender="49.822" data-glyph-descender="-8.178"></path></g></svg></g>
        </g>
  </svg>